<svg width="16" height="16" viewBox="0 0 16 16" fill="none" xmlns="http://www.w3.org/2000/svg">
<g clip-path="url(#clip0_508_2350)">
<path fill-rule="evenodd" clip-rule="evenodd" d="M8 0C12.4183 0 16 3.58172 16 8C16 12.4183 12.4183 16 8 16C3.58172 16 0 12.4183 0 8C0 3.58172 3.58172 0 8 0ZM10.3316 8.95654L8 11.288L5.6695 8.95765L4.31168 10.3117L4.3136 10.3136L8 14L11.6876 10.3125L11.6883 10.3118L10.3316 8.95654ZM8 6.62331L6.98302 7.64L6.86619 7.75688L6.62523 7.99789L6.62331 7.99976L6.62523 8.00173L8 9.37669L9.37597 8.00072L9.37664 7.99995L9.37539 7.99928H9.37587L8 6.62331ZM12.644 6.64453L11.288 8.00058L12.644 9.35653L14 8.00048L12.644 6.64453ZM3.35605 6.64376L2 8L3.35595 9.35576L4.712 7.99971L3.35605 6.64376ZM8 2L4.3136 5.6864L5.66955 7.0424L5.6695 7.0425L8 4.712L10.3316 7.0435L11.6876 5.6875L8 2Z" fill="#F3BA2F"/>
</g>
<defs>
<clipPath id="clip0_508_2350">
<rect width="16" height="16" fill="white"/>
</clipPath>
</defs>
</svg>
