<svg width="24" height="24" viewBox="0 0 24 24" fill="none" xmlns="http://www.w3.org/2000/svg">
<path fill-rule="evenodd" clip-rule="evenodd" d="M20 12C20 16.4183 16.4183 20 12 20C7.58172 20 4 16.4183 4 12C4 7.58172 7.58172 4 12 4C16.4183 4 20 7.58172 20 12ZM12 21C16.9706 21 21 16.9706 21 12C21 7.02944 16.9706 3 12 3C7.02944 3 3 7.02944 3 12C3 16.9706 7.02944 21 12 21ZM11.424 13.0228C11.3163 13.361 11.2594 13.8039 11.2535 14.3515V14.4054H12.3577V14.3515C12.3637 13.9804 12.4026 13.6722 12.4744 13.4268C12.5463 13.1814 12.6585 12.9704 12.8111 12.7939C12.9667 12.6173 13.1807 12.4452 13.453 12.2776C13.86 12.0262 14.1713 11.7225 14.3867 11.3664C14.6022 11.0102 14.7099 10.5898 14.7099 10.105C14.7099 9.64111 14.6007 9.22514 14.3823 8.85704C14.1668 8.48895 13.86 8.20166 13.462 7.99517C13.067 7.78568 12.6091 7.68094 12.0884 7.68094C11.6006 7.68094 11.1562 7.7782 10.7552 7.97272C10.3572 8.16724 10.0369 8.44855 9.79454 8.81664C9.55513 9.18175 9.42495 9.61418 9.40401 10.1139H10.5622C10.5861 9.78177 10.6714 9.50645 10.818 9.28798C10.9647 9.06653 11.1487 8.90343 11.3702 8.79869C11.5946 8.69395 11.834 8.64157 12.0884 8.64157C12.3667 8.64157 12.6211 8.69993 12.8515 8.81664C13.082 8.93336 13.263 9.09945 13.3947 9.31492C13.5294 9.52739 13.5967 9.77578 13.5967 10.0601C13.5967 10.3953 13.5114 10.6915 13.3408 10.9489C13.1732 11.2063 12.9473 11.4217 12.663 11.5953C12.3368 11.7958 12.0764 11.9993 11.8819 12.2058C11.6874 12.4093 11.5348 12.6816 11.424 13.0228ZM11.433 16.9641C11.5617 17.0359 11.6994 17.0718 11.846 17.0718C11.9926 17.0718 12.1288 17.0359 12.2545 16.9641C12.3802 16.8893 12.4789 16.789 12.5508 16.6633C12.6256 16.5376 12.663 16.4015 12.663 16.2548C12.663 16.1082 12.6256 15.972 12.5508 15.8463C12.4789 15.7206 12.3802 15.6219 12.2545 15.5501C12.1288 15.4753 11.9926 15.4378 11.846 15.4378C11.6994 15.4378 11.5617 15.4753 11.433 15.5501C11.3073 15.6219 11.2071 15.7206 11.1323 15.8463C11.0604 15.972 11.026 16.1082 11.029 16.2548C11.026 16.4015 11.0604 16.5376 11.1323 16.6633C11.2071 16.789 11.3073 16.8893 11.433 16.9641Z" fill="#77768D"/>
</svg>
