<svg width="40" height="40" viewBox="0 0 40 40" fill="none" xmlns="http://www.w3.org/2000/svg">
<path fill-rule="evenodd" clip-rule="evenodd" d="M18.9169 3.38949C19.5388 2.87016 20.4432 2.87017 21.065 3.38953C25.6719 7.23706 30.9248 7.20724 32.9558 7.19571C33.0572 7.19514 33.1505 7.19461 33.2354 7.19461C33.6841 7.19461 34.1141 7.37463 34.4291 7.69434C34.744 8.01405 34.9175 8.44673 34.9107 8.89545C34.8147 15.2651 34.5594 19.8103 34.0586 23.1411C33.5581 26.4698 32.791 28.7488 31.5562 30.465C30.3127 32.1932 28.7143 33.1748 27.0095 34.117C26.7142 34.2802 26.4131 34.4435 26.1048 34.6108C24.608 35.4227 22.9433 36.3256 20.9676 37.7429C20.3839 38.1616 19.5981 38.1616 19.0143 37.7429C17.0405 36.327 15.378 35.4244 13.8835 34.6131C13.5738 34.4449 13.2712 34.2807 12.9746 34.1166C11.2711 33.1742 9.67492 32.1923 8.4338 30.4635C7.20167 28.7473 6.43712 26.4683 5.93844 23.1403C5.43942 19.8099 5.18523 15.2649 5.08906 8.89547C5.08228 8.44675 5.25579 8.01406 5.57072 7.69435C5.88564 7.37463 6.31566 7.19461 6.76443 7.19461C6.84831 7.19461 6.94072 7.19514 7.04118 7.19571C9.05576 7.20725 14.3094 7.23735 18.9169 3.38949ZM8.47006 10.5357C8.58359 15.974 8.83088 19.8294 9.25257 22.6437C9.71705 25.7435 10.3718 27.4167 11.156 28.5092C11.9313 29.5891 12.9487 30.2725 14.5968 31.1843C14.8653 31.3328 15.1485 31.4864 15.4458 31.6476C16.7156 32.3362 18.2437 33.1649 19.991 34.3411C21.7407 33.1634 23.2711 32.3342 24.5429 31.645C24.839 31.4846 25.121 31.3318 25.3886 31.1839C27.0389 30.2719 28.0586 29.5882 28.836 28.5077C29.6221 27.4152 30.2787 25.7421 30.7447 22.6428C31.1678 19.829 31.4161 15.9739 31.5297 10.536C28.9261 10.4538 24.3249 9.91967 19.9909 6.79566C15.662 9.91594 11.0672 10.4525 8.47006 10.5357Z" fill="#3375BB"/>
</svg>
