<svg width="24" height="24" viewBox="0 0 24 24" fill="none" xmlns="http://www.w3.org/2000/svg">
<path fill-rule="evenodd" clip-rule="evenodd" d="M5.06003 3.2316L6.47424 1.81738L9.43621 4.77935C10.2616 4.59645 11.1195 4.49999 12 4.49999C17.005 4.49999 21.27 7.60999 23 12C22.4288 13.4495 21.5807 14.7594 20.5208 15.8639L22.1363 17.4794L20.7221 18.8937L5.06003 3.2316ZM16.9891 12.3323C16.9963 12.2224 17 12.1116 17 12C17 9.23999 14.76 6.99999 12 6.99999C11.8884 6.99999 11.7776 7.00366 11.6677 7.01088L16.9891 12.3323Z" fill="black"/>
<path d="M1 12C1.90367 9.70687 3.50038 7.763 5.53216 6.42919L8.04485 8.94188C7.38992 9.78746 7 10.8485 7 12C7 14.76 9.24 17 12 17C13.1515 17 14.2125 16.6101 15.0581 15.9551L17.3321 18.2291C15.7305 19.0419 13.919 19.5 12 19.5C7 19.5 2.73 16.39 1 12Z" fill="black"/>
<path d="M9 12C9 11.4017 9.17579 10.8439 9.47846 10.3755L13.6245 14.5215C13.1561 14.8242 12.5983 15 12 15C10.345 15 9 13.655 9 12Z" fill="black"/>
</svg>
