<svg width="24" height="24" viewBox="0 0 24 24" fill="none" xmlns="http://www.w3.org/2000/svg">
<circle cx="12" cy="12" r="8" stroke="#24242E" stroke-width="2"/>
<path d="M16 12C16 14.3481 15.4691 16.4244 14.6614 17.8783C13.8348 19.3661 12.8526 20 12 20C11.1474 20 10.1652 19.3661 9.33862 17.8783C8.53089 16.4244 8 14.3481 8 12C8 9.65195 8.53089 7.57561 9.33862 6.12168C10.1652 4.63388 11.1474 4 12 4C12.8526 4 13.8348 4.63388 14.6614 6.12168C15.4691 7.57561 16 9.65195 16 12Z" stroke="#24242E" stroke-width="2"/>
<rect x="4" y="11" width="16" height="2" fill="#24242E"/>
<rect x="11" y="20" width="16" height="2" transform="rotate(-90 11 20)" fill="#24242E"/>
</svg>
