<svg width="24" height="24" viewBox="0 0 24 24" fill="none" xmlns="http://www.w3.org/2000/svg">
<rect width="24" height="24" rx="12" fill="#FF586D"/>
<path fill-rule="evenodd" clip-rule="evenodd" d="M18.9834 5.03873C18.9798 5.03492 18.9762 5.03116 18.9725 5.02744C18.9688 5.02373 18.965 5.02008 18.9612 5.0165C18.8763 4.93673 18.7678 4.89051 18.6552 4.88231C18.6252 4.88012 18.595 4.88063 18.5648 4.88391C18.5235 4.88839 18.4826 4.898 18.4432 4.91274L3.21569 10.2424C3.02219 10.3101 2.88963 10.4891 2.88128 10.6939C2.87292 10.8988 2.99045 11.088 3.17779 11.1712L9.85919 14.1407L12.8287 20.8221C12.912 21.0095 13.1011 21.127 13.306 21.1186C13.5108 21.1103 13.6898 20.9777 13.7575 20.7842L19.0872 5.55647C19.1014 5.51857 19.1108 5.47929 19.1155 5.43956C19.1326 5.2946 19.0855 5.14738 18.9834 5.03873ZM16.7161 6.57673L4.7364 10.7696L10.1273 13.1656L16.7161 6.57673ZM10.8344 13.8727L17.4232 7.28383L13.2303 19.2635L10.8344 13.8727Z" fill="white"/>
</svg>
