<svg width="24" height="24" viewBox="0 0 24 24" fill="none" xmlns="http://www.w3.org/2000/svg">
<path fill-rule="evenodd" clip-rule="evenodd" d="M15.3421 4.20161L15.3354 4.19242C15.01 3.74611 14.3845 3.64802 13.9382 3.97333L12.5297 5H4C2.89543 5 2 5.89543 2 7V19C2 20.1046 2.89543 21 4 21H18C19.1046 21 20 20.1046 20 19V18H21C21.5523 18 22 17.5523 22 17V13C22 12.4477 21.5523 12 21 12H20V9.75H16.4688C15.7456 9.75 15.1243 9.45577 14.6815 9H8.73954L14.5272 4.78144L14.7951 5.14895L15.3421 4.20161ZM6.5 10H19V12H15C14.4477 12 14 12.4477 14 13V17C14 17.5523 14.4477 18 15 18H19V19C19 19.5523 18.5523 20 18 20H4C3.44772 20 3 19.5523 3 19V7C3 6.44772 3.44772 6 4 6H11.1577L7.04181 9H6.5C6.22386 9 6 9.22386 6 9.5C6 9.77614 6.22386 10 6.5 10ZM15 13V17H21V13H15Z" fill="#24242E"/>
<path d="M15.3421 4.20161L15.7751 4.45161L15.9377 4.16994L15.7461 3.90711L15.3421 4.20161ZM15.3354 4.19242L15.7394 3.89792L15.7394 3.89791L15.3354 4.19242ZM13.9382 3.97333L14.2327 4.37738L14.2327 4.37738L13.9382 3.97333ZM12.5297 5V5.5H12.6925L12.8242 5.40406L12.5297 5ZM20 18V17.5H19.5V18H20ZM20 12H19.5V12.5H20V12ZM20 9.75H20.5V9.25H20V9.75ZM14.6815 9L15.0401 8.65159L14.8928 8.5H14.6815V9ZM8.73954 9L8.44503 8.59594L7.20469 9.5H8.73954V9ZM14.5272 4.78144L14.9313 4.48693L14.6368 4.08287L14.2327 4.37738L14.5272 4.78144ZM14.7951 5.14895L14.3911 5.44346L14.8438 6.06461L15.2281 5.39895L14.7951 5.14895ZM19 10H19.5V9.5H19V10ZM19 12V12.5H19.5V12H19ZM19 18H19.5V17.5H19V18ZM11.1577 6L11.4522 6.40406L12.6925 5.5H11.1577V6ZM7.04181 9V9.5H7.20469L7.33632 9.40406L7.04181 9ZM15 17H14.5V17.5H15V17ZM15 13V12.5H14.5V13H15ZM21 17V17.5H21.5V17H21ZM21 13H21.5V12.5H21V13ZM15.7461 3.90711L15.7394 3.89792L14.9313 4.48692L14.938 4.49611L15.7461 3.90711ZM15.7394 3.89791C15.2515 3.22844 14.3132 3.0813 13.6437 3.56927L14.2327 4.37738C14.4559 4.21473 14.7686 4.26377 14.9313 4.48693L15.7394 3.89791ZM13.6437 3.56927L12.2351 4.59594L12.8242 5.40406L14.2327 4.37738L13.6437 3.56927ZM12.5297 4.5H4V5.5H12.5297V4.5ZM4 4.5C2.61929 4.5 1.5 5.61929 1.5 7H2.5C2.5 6.17157 3.17157 5.5 4 5.5V4.5ZM1.5 7V19H2.5V7H1.5ZM1.5 19C1.5 20.3807 2.61929 21.5 4 21.5V20.5C3.17157 20.5 2.5 19.8284 2.5 19H1.5ZM4 21.5H18V20.5H4V21.5ZM18 21.5C19.3807 21.5 20.5 20.3807 20.5 19H19.5C19.5 19.8284 18.8284 20.5 18 20.5V21.5ZM20.5 19V18H19.5V19H20.5ZM20 18.5H21V17.5H20V18.5ZM21 18.5C21.8284 18.5 22.5 17.8284 22.5 17H21.5C21.5 17.2761 21.2761 17.5 21 17.5V18.5ZM22.5 17V13H21.5V17H22.5ZM22.5 13C22.5 12.1716 21.8284 11.5 21 11.5V12.5C21.2761 12.5 21.5 12.7239 21.5 13H22.5ZM21 11.5H20V12.5H21V11.5ZM20.5 12V9.75H19.5V12H20.5ZM20 9.25H16.4688V10.25H20V9.25ZM16.4688 9.25C15.8872 9.25 15.3934 9.01525 15.0401 8.65159L14.3229 9.34841C14.8551 9.89629 15.6039 10.25 16.4688 10.25V9.25ZM14.6815 8.5H8.73954V9.5H14.6815V8.5ZM9.03405 9.40406L14.8217 5.1855L14.2327 4.37738L8.44503 8.59594L9.03405 9.40406ZM14.1232 5.07595L14.3911 5.44346L15.1992 4.85444L14.9313 4.48693L14.1232 5.07595ZM15.2281 5.39895L15.7751 4.45161L14.909 3.95161L14.3621 4.89895L15.2281 5.39895ZM19 9.5H6.5V10.5H19V9.5ZM19.5 12V10H18.5V12H19.5ZM15 12.5H19V11.5H15V12.5ZM14.5 13C14.5 12.7239 14.7239 12.5 15 12.5V11.5C14.1716 11.5 13.5 12.1716 13.5 13H14.5ZM14.5 17V13H13.5V17H14.5ZM15 17.5C14.7239 17.5 14.5 17.2761 14.5 17H13.5C13.5 17.8284 14.1716 18.5 15 18.5V17.5ZM19 17.5H15V18.5H19V17.5ZM19.5 19V18H18.5V19H19.5ZM18 20.5C18.8284 20.5 19.5 19.8284 19.5 19H18.5C18.5 19.2761 18.2761 19.5 18 19.5V20.5ZM4 20.5H18V19.5H4V20.5ZM2.5 19C2.5 19.8284 3.17157 20.5 4 20.5V19.5C3.72386 19.5 3.5 19.2761 3.5 19H2.5ZM2.5 7V19H3.5V7H2.5ZM4 5.5C3.17157 5.5 2.5 6.17157 2.5 7H3.5C3.5 6.72386 3.72386 6.5 4 6.5V5.5ZM11.1577 5.5H4V6.5H11.1577V5.5ZM7.33632 9.40406L11.4522 6.40406L10.8632 5.59594L6.7473 8.59594L7.33632 9.40406ZM6.5 9.5H7.04181V8.5H6.5V9.5ZM6.5 9.5V8.5C5.94772 8.5 5.5 8.94772 5.5 9.5H6.5ZM6.5 9.5H5.5C5.5 10.0523 5.94771 10.5 6.5 10.5V9.5ZM15.5 17V13H14.5V17H15.5ZM21 16.5H15V17.5H21V16.5ZM20.5 13V17H21.5V13H20.5ZM15 13.5H21V12.5H15V13.5Z" fill="#24242E"/>
<path fill-rule="evenodd" clip-rule="evenodd" d="M19.9331 1.75C19.7407 1.41667 19.2595 1.41667 19.0671 1.75L16.036 7C15.8435 7.33333 16.0841 7.75 16.469 7.75H22.5312C22.9161 7.75 23.1566 7.33333 22.9642 7L19.9331 1.75ZM19 3H20V5H19V3ZM19 6H20V7H19V6Z" fill="#FF0000"/>
</svg>
