<svg width="40" height="40" viewBox="0 0 40 40" fill="none" xmlns="http://www.w3.org/2000/svg">
<path d="M34.9583 4L21.8242 13.7183L24.2666 7.99099L34.9583 4Z" fill="#E17726" stroke="#E17726" stroke-width="0.25" stroke-linecap="round" stroke-linejoin="round"/>
<path d="M4.66284 4L17.68 13.809L15.3546 7.99098L4.66284 4Z" fill="#E27625" stroke="#E27625" stroke-width="0.25" stroke-linecap="round" stroke-linejoin="round"/>
<path d="M30.2292 26.5334L26.7346 31.872L34.2175 33.9323L36.3611 26.6501L30.2292 26.5334Z" fill="#E27625" stroke="#E27625" stroke-width="0.25" stroke-linecap="round" stroke-linejoin="round"/>
<path d="M3.27271 26.6501L5.40324 33.9323L12.8732 31.872L9.39154 26.5334L3.27271 26.6501Z" fill="#E27625" stroke="#E27625" stroke-width="0.25" stroke-linecap="round" stroke-linejoin="round"/>
<path d="M12.4704 17.5149L10.3918 20.6507L17.7968 20.9876L17.55 13.0186L12.4704 17.5149Z" fill="#E27625" stroke="#E27625" stroke-width="0.25" stroke-linecap="round" stroke-linejoin="round"/>
<path d="M27.1503 17.515L21.9929 12.928L21.824 20.9877L29.2289 20.6508L27.1503 17.515Z" fill="#E27625" stroke="#E27625" stroke-width="0.25" stroke-linecap="round" stroke-linejoin="round"/>
<path d="M12.8733 31.872L17.3552 29.7081L13.4969 26.7019L12.8733 31.872Z" fill="#E27625" stroke="#E27625" stroke-width="0.25" stroke-linecap="round" stroke-linejoin="round"/>
<path d="M22.2659 29.7081L26.7348 31.872L26.1242 26.7019L22.2659 29.7081Z" fill="#E27625" stroke="#E27625" stroke-width="0.25" stroke-linecap="round" stroke-linejoin="round"/>
<path d="M26.7348 31.8722L22.2659 29.7083L22.6296 32.6108L22.5906 33.8418L26.7348 31.8722Z" fill="#D5BFB2" stroke="#D5BFB2" stroke-width="0.25" stroke-linecap="round" stroke-linejoin="round"/>
<path d="M12.8733 31.8722L17.0305 33.8418L17.0045 32.6108L17.3552 29.7083L12.8733 31.8722Z" fill="#D5BFB2" stroke="#D5BFB2" stroke-width="0.25" stroke-linecap="round" stroke-linejoin="round"/>
<path d="M17.1083 24.7842L13.3928 23.6958L16.017 22.4907L17.1083 24.7842Z" fill="#233447" stroke="#233447" stroke-width="0.25" stroke-linecap="round" stroke-linejoin="round"/>
<path d="M22.5127 24.7842L23.604 22.4907L26.2412 23.6958L22.5127 24.7842Z" fill="#233447" stroke="#233447" stroke-width="0.25" stroke-linecap="round" stroke-linejoin="round"/>
<path d="M12.8732 31.872L13.5228 26.5334L9.3916 26.6501L12.8732 31.872Z" fill="#CC6228" stroke="#CC6228" stroke-width="0.25" stroke-linecap="round" stroke-linejoin="round"/>
<path d="M26.0981 26.5334L26.7347 31.872L30.2293 26.6501L26.0981 26.5334Z" fill="#CC6228" stroke="#CC6228" stroke-width="0.25" stroke-linecap="round" stroke-linejoin="round"/>
<path d="M29.2289 20.6506L21.824 20.9875L22.5125 24.7842L23.6038 22.4906L26.241 23.6957L29.2289 20.6506Z" fill="#CC6228" stroke="#CC6228" stroke-width="0.25" stroke-linecap="round" stroke-linejoin="round"/>
<path d="M13.3928 23.6957L16.017 22.4906L17.1083 24.7842L17.7968 20.9875L10.3918 20.6506L13.3928 23.6957Z" fill="#CC6228" stroke="#CC6228" stroke-width="0.25" stroke-linecap="round" stroke-linejoin="round"/>
<path d="M10.3921 20.6506L13.497 26.7019L13.393 23.6957L10.3921 20.6506Z" fill="#E27525" stroke="#E27525" stroke-width="0.25" stroke-linecap="round" stroke-linejoin="round"/>
<path d="M26.2412 23.6957L26.1243 26.7019L29.2292 20.6506L26.2412 23.6957Z" fill="#E27525" stroke="#E27525" stroke-width="0.25" stroke-linecap="round" stroke-linejoin="round"/>
<path d="M17.7972 20.9875L17.1086 24.7843L17.979 29.2675L18.1739 23.3589L17.7972 20.9875Z" fill="#E27525" stroke="#E27525" stroke-width="0.25" stroke-linecap="round" stroke-linejoin="round"/>
<path d="M21.8242 20.9875L21.4604 23.3459L21.6423 29.2675L22.5127 24.7843L21.8242 20.9875Z" fill="#E27525" stroke="#E27525" stroke-width="0.25" stroke-linecap="round" stroke-linejoin="round"/>
<path d="M22.5127 24.7843L21.6423 29.2676L22.2659 29.7082L26.1243 26.702L26.2412 23.6958L22.5127 24.7843Z" fill="#F5841F" stroke="#F5841F" stroke-width="0.25" stroke-linecap="round" stroke-linejoin="round"/>
<path d="M13.3928 23.6958L13.4968 26.702L17.3551 29.7082L17.9787 29.2676L17.1083 24.7843L13.3928 23.6958Z" fill="#F5841F" stroke="#F5841F" stroke-width="0.25" stroke-linecap="round" stroke-linejoin="round"/>
<path d="M22.5907 33.8417L22.6296 32.6107L22.2919 32.3256H17.3293L17.0045 32.6107L17.0305 33.8417L12.8733 31.8721L14.3283 33.0642L17.2773 35.0986H22.3308L25.2928 33.0642L26.7348 31.8721L22.5907 33.8417Z" fill="#C0AC9D" stroke="#C0AC9D" stroke-width="0.25" stroke-linecap="round" stroke-linejoin="round"/>
<path d="M22.2658 29.7081L21.6422 29.2676H17.9787L17.3552 29.7081L17.0044 32.6107L17.3292 32.3256H22.2918L22.6296 32.6107L22.2658 29.7081Z" fill="#161616" stroke="#161616" stroke-width="0.25" stroke-linecap="round" stroke-linejoin="round"/>
<path d="M35.5168 14.3532L36.6211 8.98873L34.9582 4L22.2659 13.3944L27.1505 17.5149L34.0488 19.5234L35.5688 17.7482L34.9063 17.2687L35.9585 16.3099L35.1531 15.6879L36.2054 14.8845L35.5168 14.3532Z" fill="#763E1A" stroke="#763E1A" stroke-width="0.25" stroke-linecap="round" stroke-linejoin="round"/>
<path d="M3 8.98873L4.11724 14.3532L3.40273 14.8845L4.468 15.6879L3.66255 16.3099L4.71483 17.2687L4.05228 17.7482L5.57225 19.5234L12.4706 17.5149L17.3552 13.3944L4.66287 4L3 8.98873Z" fill="#763E1A" stroke="#763E1A" stroke-width="0.25" stroke-linecap="round" stroke-linejoin="round"/>
<path d="M34.0489 19.5233L27.1506 17.5149L29.2292 20.6507L26.1243 26.7019L30.2295 26.6501H36.3613L34.0489 19.5233Z" fill="#F5841F" stroke="#F5841F" stroke-width="0.25" stroke-linecap="round" stroke-linejoin="round"/>
<path d="M12.4704 17.5149L5.57213 19.5233L3.27271 26.6501H9.39154L13.4967 26.7019L10.3919 20.6507L12.4704 17.5149Z" fill="#F5841F" stroke="#F5841F" stroke-width="0.25" stroke-linecap="round" stroke-linejoin="round"/>
<path d="M21.8241 20.9876L22.2658 13.3943L24.2664 7.99097H15.3545L17.3551 13.3943L17.7968 20.9876L17.9657 23.3718L17.9787 29.2676H21.6422L21.6552 23.3718L21.8241 20.9876Z" fill="#F5841F" stroke="#F5841F" stroke-width="0.25" stroke-linecap="round" stroke-linejoin="round"/>
</svg>
