<svg width="24" height="24" viewBox="0 0 24 24" fill="none" xmlns="http://www.w3.org/2000/svg">
<path d="M18.1071 12.78C18.14 12.524 18.1647 12.264 18.1647 12C18.1647 11.736 18.14 11.476 18.1071 11.22L19.8461 9.896C20.0024 9.776 20.0476 9.56 19.9448 9.384L18.3003 6.612C18.1976 6.44 17.9838 6.368 17.7988 6.44L15.7514 7.244C15.328 6.928 14.8634 6.66 14.3619 6.456L14.0535 4.336C14.0165 4.148 13.848 4 13.6424 4H10.3535C10.1479 4 9.97937 4.148 9.94648 4.336L9.63814 6.456C9.13658 6.66 8.67202 6.924 8.24857 7.244L6.20121 6.44C6.01621 6.372 5.80243 6.44 5.69965 6.612L4.05519 9.384C3.95241 9.556 3.99763 9.772 4.15386 9.896L5.88877 11.22C5.85588 11.476 5.83121 11.736 5.83121 12C5.83121 12.264 5.85588 12.524 5.88877 12.78L4.15386 14.104C3.99763 14.224 3.95241 14.44 4.05519 14.616L5.69965 17.388C5.80243 17.56 6.01621 17.632 6.20121 17.56L8.24857 16.756C8.67202 17.072 9.13658 17.34 9.63814 17.544L9.94648 19.664C9.97937 19.852 10.1479 20 10.3535 20H13.6424C13.848 20 14.0165 19.852 14.0494 19.664L14.3577 17.544C14.8593 17.34 15.3239 17.076 15.7473 16.756L17.7947 17.56C17.9797 17.628 18.1935 17.56 18.2962 17.388L19.9407 14.616C20.0435 14.444 19.9983 14.228 19.842 14.104L18.1071 12.78ZM11.9979 14.8C10.4069 14.8 9.12013 13.548 9.12013 12C9.12013 10.452 10.4069 9.2 11.9979 9.2C13.589 9.2 14.8758 10.452 14.8758 12C14.8758 13.548 13.589 14.8 11.9979 14.8Z" fill="#24242E"/>
</svg>
