<svg width="24" height="24" viewBox="0 0 24 24" fill="none" xmlns="http://www.w3.org/2000/svg">
<path fill-rule="evenodd" clip-rule="evenodd" d="M21 12C21 16.9706 16.9706 21 12 21C7.02944 21 3 16.9706 3 12C3 7.02944 7.02944 3 12 3C16.9706 3 21 7.02944 21 12ZM22 12C22 17.5228 17.5228 22 12 22C6.47715 22 2 17.5228 2 12C2 6.47715 6.47715 2 12 2C17.5228 2 22 6.47715 22 12ZM11.1862 6H13.3138V7.73222H11.1862V6ZM10 16.8075H10.546C10.7971 16.8075 10.9728 16.751 11.0732 16.6381C11.1862 16.5251 11.2427 16.3431 11.2427 16.0921V11.2531C11.2427 11.0146 11.1862 10.8452 11.0732 10.7448C10.9728 10.6318 10.7971 10.5753 10.546 10.5753H10V9.16318H13.2573V16.1109C13.2573 16.3494 13.3138 16.5251 13.4268 16.6381C13.5398 16.751 13.7155 16.8075 13.954 16.8075H14.5V18.2008H10V16.8075Z" fill="#77768D"/>
</svg>
