<svg width="24" height="24" viewBox="0 0 24 24" fill="none" xmlns="http://www.w3.org/2000/svg">
<path d="M17.5447 6.07763C16.5249 5.57884 15.4313 5.21136 14.2879 5.00088C14.2671 4.99682 14.2463 5.00697 14.2356 5.02728C14.0949 5.29392 13.9392 5.64178 13.8301 5.91519C12.6003 5.71894 11.3768 5.71894 10.1722 5.91519C10.0631 5.6357 9.90166 5.29392 9.76038 5.02728C9.74966 5.00765 9.72886 4.9975 9.70803 5.00088C8.56527 5.21068 7.47171 5.57817 6.45129 6.07763C6.44246 6.08169 6.43488 6.08846 6.42986 6.09725C4.35559 9.40058 3.78737 12.6227 4.06612 15.8049C4.06738 15.8205 4.07558 15.8354 4.08693 15.8448C5.45547 16.9161 6.78114 17.5665 8.08219 17.9976C8.10301 18.0044 8.12507 17.9963 8.13832 17.978C8.44608 17.53 8.72043 17.0576 8.95565 16.5608C8.96953 16.5318 8.95628 16.4972 8.92791 16.4857C8.49275 16.3098 8.0784 16.0952 7.67982 15.8516C7.64829 15.832 7.64577 15.7839 7.67477 15.7609C7.75865 15.6939 7.84255 15.6242 7.92264 15.5538C7.93713 15.5409 7.95732 15.5382 7.97435 15.5464C10.5929 16.8207 13.4277 16.8207 16.0153 15.5464C16.0323 15.5376 16.0525 15.5403 16.0677 15.5531C16.1478 15.6235 16.2316 15.6939 16.3161 15.7609C16.3451 15.7839 16.3433 15.832 16.3117 15.8516C15.9131 16.1 15.4988 16.3098 15.063 16.4851C15.0346 16.4966 15.022 16.5318 15.0359 16.5608C15.2762 17.0569 15.5505 17.5293 15.8526 17.9773C15.8652 17.9963 15.8879 18.0044 15.9087 17.9976C17.2161 17.5665 18.5417 16.9161 19.9103 15.8448C19.9223 15.8354 19.9298 15.8211 19.9311 15.8056C20.2647 12.1266 19.3723 8.93091 17.5655 6.09793C17.5611 6.08846 17.5535 6.08169 17.5447 6.07763ZM9.34668 13.8673C8.55833 13.8673 7.90876 13.0958 7.90876 12.1483C7.90876 11.2008 8.54574 10.4293 9.34668 10.4293C10.1539 10.4293 10.7972 11.2076 10.7846 12.1483C10.7846 13.0958 10.1476 13.8673 9.34668 13.8673ZM14.6632 13.8673C13.8748 13.8673 13.2253 13.0958 13.2253 12.1483C13.2253 11.2008 13.8622 10.4293 14.6632 10.4293C15.4704 10.4293 16.1137 11.2076 16.1011 12.1483C16.1011 13.0958 15.4704 13.8673 14.6632 13.8673Z" fill="#77768D"/>
</svg>
