<svg width="32" height="32" viewBox="0 0 32 32" fill="none" xmlns="http://www.w3.org/2000/svg">
<path d="M16 8C11.581 8 8 11.581 8 16C8 20.419 11.581 23.9975 16 24C20.4184 23.9975 23.9975 20.4184 24 16C23.9975 11.581 20.4184 8 16 8ZM13.7664 9.37174C13.2265 9.99417 12.6486 10.861 12.2084 12.0009H10.2629C11.1122 10.7854 12.3334 9.85546 13.7664 9.37174ZM9.68422 12.9996H11.8791C11.6841 13.7371 11.5547 14.5695 11.5203 15.4994H9.02553C9.0885 14.6326 9.31184 13.7849 9.68422 12.9996ZM9.02553 16.5006H11.5203C11.5547 17.428 11.6841 18.2628 11.8791 19.0004H9.68673C9.31278 18.2155 9.08854 17.3677 9.02553 16.5006ZM10.2654 19.9985H12.2086C12.6486 21.1364 13.2242 22.0027 13.7641 22.6226C12.3336 22.142 11.1125 21.2121 10.2656 19.9985H10.2654ZM15.4994 22.8939C15.0282 22.5426 14.0027 21.644 13.2827 19.9985H15.4994V22.8939ZM15.4994 18.9979H12.914C12.7015 18.2799 12.5578 17.4474 12.5165 16.5005H15.4994V18.9979ZM15.4994 15.4994H12.5184C12.5603 14.5478 12.7065 13.717 12.9215 12.9996H15.4994V15.4994ZM15.4994 12.0009H13.2802C13.5439 11.398 13.8489 10.8954 14.1521 10.4829C14.5621 9.9261 14.9721 9.53301 15.2727 9.28177C15.3602 9.21052 15.4338 9.15242 15.4996 9.10363L15.4994 12.0009ZM22.9719 15.4994H20.4796C20.4428 14.5695 20.3159 13.7372 20.1183 12.9996H22.3126C22.6763 13.7664 22.9082 14.6082 22.9719 15.4994H22.9719ZM21.7345 12.0009H19.791C19.3517 10.861 18.7729 9.99417 18.2336 9.37174C19.6515 9.85168 20.8784 10.7731 21.7346 12.0009H21.7345ZM16.5006 12.0009V9.10614C16.9693 9.45739 17.9942 10.356 18.7166 12.0009H16.5006ZM16.5006 12.9996H19.0829C19.2978 13.717 19.4397 14.552 19.481 15.4994H16.5006V12.9996ZM16.5006 16.5006H19.4785C19.4373 17.4499 19.2904 18.2799 19.076 18.998H16.5006V16.5006ZM16.725 22.7158C16.6394 22.7889 16.5639 22.8451 16.5007 22.8939V19.9985H18.7193C18.4849 20.5345 18.1919 21.043 17.8456 21.5146C17.4381 22.0714 17.0275 22.4662 16.725 22.7158ZM18.2337 22.6226C18.773 22.0027 19.3515 21.1365 19.7911 19.9985H21.7346C20.8847 21.2119 19.6641 22.142 18.2336 22.6226H18.2337ZM22.3128 18.9979H20.1187C20.3162 18.2628 20.4431 17.428 20.4799 16.5005H22.9722C22.9087 17.3666 22.6852 18.2133 22.313 18.9979H22.3128Z" fill="#77768D"/>
</svg>
