<svg width="24" height="24" viewBox="0 0 24 24" fill="none" xmlns="http://www.w3.org/2000/svg">
<path d="M12.1534 7.50784C12.9552 7.60704 13.8232 7.10278 14.3192 6.43319C14.8896 5.8132 15.2037 4.96174 15.1541 4.09375C14.3771 4.09375 13.476 4.54841 12.9056 5.218C12.4592 5.77186 11.9798 6.63985 12.1534 7.50784Z" fill="black"/>
<path d="M17.849 9.17769C16.9893 7.85504 15.6005 7.69797 15.0797 7.69797C13.8728 7.69797 12.8064 8.36757 12.236 8.36757C11.6408 8.36757 10.7729 7.66491 9.7974 7.69797C8.52435 7.72277 7.35876 8.47503 6.7057 9.58275C6.24277 10.3763 6.06091 11.3105 6.07744 12.2611C6.10224 14.055 6.8049 15.9232 7.63156 17.1136C8.26808 18.0229 8.98728 18.9984 10.0041 18.9984C10.9217 18.9984 11.2606 18.3866 12.4592 18.3866C13.5752 18.3866 13.9224 18.9984 14.8896 18.9984C15.9064 18.9984 16.576 18.0725 17.1794 17.1549C17.94 16.0885 18.1962 15.0718 18.2293 15.0304C18.1962 15.0304 16.2784 14.2534 16.204 12.0379C16.204 10.0953 17.7829 9.21902 17.849 9.17769Z" fill="black"/>
</svg>
