<svg width="24" height="24" viewBox="0 0 24 24" fill="none" xmlns="http://www.w3.org/2000/svg">
<path fill-rule="evenodd" clip-rule="evenodd" d="M20 12V7C20 5.89543 19.1046 5 18 5H15.924L15.3354 4.19242C15.01 3.74611 14.3845 3.64802 13.9382 3.97333L12.5297 5H4C2.89543 5 2 5.89543 2 7V19C2 20.1046 2.89543 21 4 21H18C19.1046 21 20 20.1046 20 19V18H21C21.5523 18 22 17.5523 22 17V13C22 12.4477 21.5523 12 21 12H20ZM8.73954 9L14.5272 4.78144L17.6021 9H8.73954ZM19 9H18.8395L16.6529 6H18C18.5523 6 19 6.44772 19 7V9ZM19 10H6.5C6.22386 10 6 9.77614 6 9.5C6 9.22386 6.22386 9 6.5 9H7.04181L11.1577 6H4C3.44772 6 3 6.44772 3 7V19C3 19.5523 3.44772 20 4 20H18C18.5523 20 19 19.5523 19 19V18H15C14.4477 18 14 17.5523 14 17V13C14 12.4477 14.4477 12 15 12H19V10ZM15 17V13H21V17H15Z" fill="#24242E" stroke="#24242E"/>
</svg>
