<svg width="24" height="24" viewBox="0 0 24 24" fill="none" xmlns="http://www.w3.org/2000/svg">
<path d="M18 4H8V5H7V4C7 3.44772 7.44772 3 8 3H18C18.5523 3 19 3.44772 19 4V18C19 18.5523 18.5523 19 18 19H17V18H18V4Z" fill="#77768D"/>
<path fill-rule="evenodd" clip-rule="evenodd" d="M4 7C4 6.44772 4.44772 6 5 6H15C15.5523 6 16 6.44772 16 7V21C16 21.5523 15.5523 22 15 22H5C4.44772 22 4 21.5523 4 21V7ZM5 7H15V21H5L5 7Z" fill="#77768D"/>
<path d="M18 4H8V5H7V4C7 3.44772 7.44772 3 8 3H18C18.5523 3 19 3.44772 19 4V18C19 18.5523 18.5523 19 18 19H17V18H18V4Z" stroke="#77768D" stroke-width="0.5"/>
<path fill-rule="evenodd" clip-rule="evenodd" d="M4 7C4 6.44772 4.44772 6 5 6H15C15.5523 6 16 6.44772 16 7V21C16 21.5523 15.5523 22 15 22H5C4.44772 22 4 21.5523 4 21V7ZM5 7H15V21H5L5 7Z" stroke="#77768D" stroke-width="0.5"/>
</svg>
