<svg width="16" height="16" viewBox="0 0 16 16" fill="none" xmlns="http://www.w3.org/2000/svg">
<path d="M3.86469 9.26594L8.03135 13.5993L12.198 9.26594C12.198 9.18261 13.698 7.76594 14.0314 6.43261C14.1147 6.18261 14.198 5.93261 14.198 5.68261C14.3647 4.59928 13.7814 3.43261 12.8647 2.84928C12.0314 2.34928 10.8647 2.26594 9.86469 2.76594C9.11469 3.09928 8.53135 3.76594 8.03135 4.43261C7.53135 3.76594 6.94802 3.09928 6.19802 2.76594C5.19802 2.26594 4.03135 2.26594 3.11469 2.84928C2.28135 3.43261 1.69802 4.59928 1.78135 5.68261C1.78135 6.01594 1.86469 6.26594 1.94802 6.51594C2.36469 7.76594 3.86469 9.18261 3.86469 9.26594Z" fill="#EA5063"/>
</svg>
