<svg width="24" height="24" viewBox="0 0 24 24" fill="none" xmlns="http://www.w3.org/2000/svg">
<circle cx="12" cy="12" r="9" stroke="#24242E" stroke-width="2"/>
<path d="M11.01 7.80663H12.9762L12.8056 14.2483H11.1806L11.01 7.80663ZM11.9931 17.1122C11.7986 17.1122 11.619 17.0643 11.4544 16.9686C11.2928 16.8728 11.1641 16.7441 11.0684 16.5825C10.9726 16.4179 10.9262 16.2399 10.9292 16.0483C10.9262 15.8568 10.9726 15.6802 11.0684 15.5186C11.1641 15.357 11.2943 15.2284 11.4589 15.1326C11.6235 15.0368 11.8016 14.989 11.9931 14.989C12.1816 14.989 12.3567 15.0368 12.5183 15.1326C12.6829 15.2284 12.8146 15.357 12.9133 15.5186C13.0121 15.6802 13.0615 15.8568 13.0615 16.0483C13.0615 16.2399 13.0121 16.4179 12.9133 16.5825C12.8146 16.7441 12.6829 16.8728 12.5183 16.9686C12.3567 17.0643 12.1816 17.1122 11.9931 17.1122Z" fill="#24242E"/>
</svg>
