<svg width="24" height="24" viewBox="0 0 24 24" fill="none" xmlns="http://www.w3.org/2000/svg">
<g opacity="0.8">
<path d="M20 18C20.5523 18 21 17.5523 21 17C21 16.4477 20.5523 16 20 16V18ZM4 16C3.44772 16 3 16.4477 3 17C3 17.5523 3.44772 18 4 18V16ZM16.6 12.6V15.3333H18.6V12.6H16.6ZM19.2667 18H20V16H19.2667V18ZM4 18H4.73333V16H4V18ZM7.4 15.3333V12.6H5.4V15.3333H7.4ZM16.6 15.3333C16.6 16.8061 17.7939 18 19.2667 18V16C18.8985 16 18.6 15.7015 18.6 15.3333H16.6ZM12 8C14.5405 8 16.6 10.0595 16.6 12.6H18.6C18.6 8.95492 15.6451 6 12 6V8ZM4.73333 18C6.20609 18 7.4 16.8061 7.4 15.3333H5.4C5.4 15.7015 5.10152 16 4.73333 16V18ZM12 6C8.35492 6 5.4 8.95492 5.4 12.6H7.4C7.4 10.0595 9.45949 8 12 8V6Z" fill="#24242E"/>
<path d="M15.5 18C15.5 17.4477 15.0523 17 14.5 17C13.9477 17 13.5 17.4477 13.5 18H15.5ZM10.5 18C10.5 17.4477 10.0523 17 9.5 17C8.94772 17 8.5 17.4477 8.5 18H10.5ZM13.5 18C13.5 18.8284 12.8284 19.5 12 19.5V21.5C13.933 21.5 15.5 19.933 15.5 18H13.5ZM12 19.5C11.1716 19.5 10.5 18.8284 10.5 18H8.5C8.5 19.933 10.067 21.5 12 21.5V19.5Z" fill="#24242E"/>
<path d="M15 6.5C15 7.05228 14.5523 7.5 14 7.5C13.4477 7.5 13 7.05228 13 6.5H15ZM11 6.5C11 7.05228 10.5523 7.5 10 7.5C9.44772 7.5 9 7.05228 9 6.5H11ZM13 6.5C13 5.94772 12.5523 5.5 12 5.5V3.5C13.6569 3.5 15 4.84315 15 6.5H13ZM12 5.5C11.4477 5.5 11 5.94772 11 6.5H9C9 4.84315 10.3431 3.5 12 3.5V5.5Z" fill="#24242E"/>
<rect x="5" y="16" width="14" height="2" fill="#24242E"/>
</g>
</svg>
