<svg width="24" height="24" viewBox="0 0 24 24" fill="none" xmlns="http://www.w3.org/2000/svg">
<path d="M9.10117 5.04896C8.35632 5.0841 7.84767 5.20297 7.403 5.3777C6.94279 5.55705 6.55272 5.79773 6.16461 6.18724C5.7765 6.57675 5.53751 6.96709 5.35942 7.428C5.18706 7.87365 5.0703 8.38273 5.03739 9.128C5.00449 9.87327 4.99721 10.1128 5.00085 12.0139C5.00449 13.9149 5.01289 14.1532 5.04901 14.9C5.08458 15.6448 5.20303 16.1533 5.37776 16.5981C5.55739 17.0583 5.79779 17.4482 6.18743 17.8365C6.57708 18.2247 6.96715 18.4631 7.42918 18.6415C7.87441 18.8136 8.38363 18.9309 9.12876 18.9635C9.87389 18.9962 10.1137 19.0037 12.0142 19.0001C13.9147 18.9964 14.154 18.988 14.9007 18.9526C15.6473 18.9172 16.1532 18.7979 16.5981 18.624C17.0583 18.444 17.4486 18.204 17.8365 17.8142C18.2245 17.4244 18.4633 17.0338 18.6413 16.5726C18.8138 16.1274 18.931 15.6181 18.9633 14.8736C18.9959 14.1263 19.0036 13.8878 19 11.987C18.9964 10.0862 18.9878 9.84793 18.9524 9.1014C18.917 8.35487 18.7984 7.84789 18.6238 7.4028C18.4439 6.94259 18.2038 6.55294 17.8143 6.16442C17.4247 5.77589 17.0338 5.53717 16.5728 5.35964C16.1273 5.18729 15.6183 5.06982 14.8732 5.03762C14.1281 5.00542 13.8882 4.99716 11.9871 5.0008C10.0859 5.00444 9.84785 5.01256 9.10117 5.04896ZM9.18294 17.7042C8.50039 17.6745 8.12979 17.5611 7.88281 17.4661C7.55575 17.3401 7.32277 17.1878 7.07663 16.944C6.8305 16.7003 6.67929 16.4665 6.5516 16.1401C6.45569 15.8931 6.34018 15.5229 6.30826 14.8404C6.27354 14.1027 6.26626 13.8812 6.2622 12.0122C6.25814 10.1432 6.26528 9.922 6.29762 9.18401C6.32674 8.50202 6.44085 8.13099 6.53564 7.88416C6.66165 7.55667 6.81342 7.32412 7.05773 7.07812C7.30205 6.83212 7.53517 6.68063 7.86181 6.55294C8.10851 6.45662 8.47869 6.34209 9.16096 6.30961C9.89923 6.2746 10.1204 6.2676 11.9892 6.26354C13.8579 6.25948 14.0796 6.26648 14.8182 6.29897C15.5002 6.32865 15.8713 6.44164 16.1179 6.53698C16.4451 6.66299 16.6779 6.81434 16.9239 7.05908C17.1699 7.30382 17.3216 7.53609 17.4493 7.86343C17.5457 8.10943 17.6602 8.47948 17.6924 9.16216C17.7276 9.90043 17.7356 10.1218 17.7389 11.9904C17.7423 13.8589 17.7357 14.0808 17.7034 14.8186C17.6735 15.5011 17.5604 15.8718 17.4654 16.1191C17.3393 16.446 17.1874 16.6791 16.943 16.925C16.6985 17.1709 16.4657 17.3223 16.1389 17.45C15.8925 17.5462 15.5219 17.661 14.8402 17.6935C14.1019 17.7282 13.8807 17.7355 12.0113 17.7396C10.1419 17.7436 9.92135 17.7361 9.18308 17.7042H9.18294ZM14.8899 8.25896C14.8902 8.42512 14.9397 8.58747 15.0322 8.72546C15.1248 8.86346 15.2562 8.97092 15.4098 9.03423C15.5634 9.09755 15.7324 9.11389 15.8953 9.08118C16.0582 9.04847 16.2078 8.96819 16.325 8.85048C16.4423 8.73277 16.522 8.58293 16.5542 8.4199C16.5863 8.25687 16.5693 8.08799 16.5054 7.9346C16.4415 7.78121 16.3336 7.65021 16.1953 7.55816C16.0569 7.46612 15.8944 7.41717 15.7283 7.4175C15.5055 7.41795 15.2921 7.50684 15.1348 7.66464C14.9776 7.82243 14.8895 8.03621 14.8899 8.25896ZM8.40603 12.0074C8.40995 13.9928 10.0223 15.5985 12.0072 15.5948C13.9921 15.591 15.599 13.9788 15.5952 11.9934C15.5915 10.0081 13.9787 8.40191 11.9935 8.40583C10.0083 8.40975 8.40225 10.0224 8.40603 12.0074ZM9.66695 12.0049C9.66604 11.5434 9.80201 11.092 10.0577 10.7077C10.3133 10.3234 10.6772 10.0236 11.1032 9.84616C11.5293 9.6687 11.9984 9.62156 12.4512 9.7107C12.904 9.79985 13.3203 10.0213 13.6473 10.347C13.9743 10.6727 14.1974 11.088 14.2883 11.5405C14.3792 11.993 14.3339 12.4623 14.1582 12.889C13.9824 13.3158 13.684 13.6808 13.3008 13.938C12.9175 14.1952 12.4666 14.3329 12.0051 14.3338C11.6987 14.3345 11.3951 14.2748 11.1117 14.1581C10.8283 14.0414 10.5707 13.87 10.3536 13.6537C10.1365 13.4374 9.96409 13.1805 9.84628 12.8976C9.72846 12.6147 9.66752 12.3114 9.66695 12.0049Z" fill="#77768D"/>
</svg>
