<svg width="16" height="16" viewBox="0 0 16 16" fill="none" xmlns="http://www.w3.org/2000/svg">
<path d="M0 8C0 3.58172 3.58172 0 8 0V0C12.4183 0 16 3.58172 16 8V8C16 12.4183 12.4183 16 8 16V16C3.58172 16 0 12.4183 0 8V8Z" fill="#24242E"/>
<path fill-rule="evenodd" clip-rule="evenodd" d="M6.55563 12.6849L5.08202 12.015C5.30529 11.7024 5.72505 10.729 5.61788 9.33573C5.12667 9.24642 4.14426 8.98424 3.59375 8.76549L4.14426 7.32625L4.80371 7.54674L5.48391 7.72815C5.34995 7.23694 5.16239 6.01339 5.48391 5.04884C5.88581 3.84316 7.22546 2.90543 8.83304 3.17335C10.3067 3.41894 11.8964 4.78095 11.6463 6.65639C11.4088 8.43736 10.0789 9.17118 9.50287 9.33577C8.56536 9.60363 7.76175 9.60363 7.09203 9.60363H7.09149C7.13615 10.2735 7.09149 11.8275 6.55563 12.6849ZM6.82355 5.98659C6.95752 5.04884 8.0937 4.52872 8.89747 4.79672C9.63622 5.04305 10.1727 5.58467 10.0387 6.52243C9.90478 7.46019 9.23496 7.86208 8.6991 7.99605C8.27041 8.10322 7.35941 8.04073 6.95752 7.99607C6.86821 7.63882 6.71638 6.73679 6.82355 5.98659Z" fill="white"/>
<circle cx="10.7031" cy="11.6093" r="1.01562" fill="#FF586D"/>
</svg>
