<svg width="40" height="40" viewBox="0 0 40 40" fill="none" xmlns="http://www.w3.org/2000/svg">
<path d="M8.13613 18.6341C8.13617 18.4156 8.17938 18.1992 8.26327 17.9974C8.34717 17.7956 8.47009 17.6124 8.625 17.4583C8.7799 17.3041 8.96372 17.1821 9.16592 17.0992C9.36812 17.0162 9.5847 16.9741 9.80323 16.9751L12.5671 16.9841C13.0078 16.9841 13.4304 17.1592 13.742 17.4708C14.0536 17.7824 14.2287 18.2051 14.2287 18.6457V29.0974C14.54 29.0051 14.9384 28.9067 15.3768 28.8035C15.6805 28.732 15.9512 28.5601 16.1449 28.3155C16.3387 28.0709 16.4441 27.7681 16.4442 27.4561V14.4925C16.4442 14.0518 16.6193 13.6291 16.9309 13.3175C17.2425 13.0058 17.6651 12.8307 18.1058 12.8306H20.8781C21.3188 12.8307 21.7414 13.0058 22.053 13.3175C22.3646 13.6291 22.5397 14.0518 22.5397 14.4925V26.5248C22.5397 26.5248 23.2332 26.2441 23.9084 25.959C24.1593 25.8529 24.3734 25.6752 24.524 25.4482C24.6745 25.2212 24.7549 24.9549 24.7552 24.6825V10.3383C24.7552 9.8977 24.9302 9.47511 25.2417 9.1635C25.5533 8.8519 25.9758 8.6768 26.4165 8.67671H29.1858C29.6262 8.67714 30.0484 8.8524 30.3597 9.16396C30.671 9.47553 30.8458 9.89792 30.8458 10.3383V22.1503C33.2468 20.4103 35.68 18.3174 37.611 15.8009C37.8911 15.4356 38.0765 15.0067 38.1506 14.5523C38.2246 14.098 38.1851 13.6324 38.0355 13.197C37.1416 10.6255 35.7208 8.26881 33.8639 6.27786C32.007 4.28692 29.7549 2.70553 27.2518 1.63491C24.7487 0.564279 22.0496 0.0279834 19.3273 0.0603417C16.605 0.0927 13.9194 0.692997 11.4424 1.82282C8.96545 2.95264 6.7516 4.58711 4.94254 6.62163C3.13349 8.65615 1.76907 11.0459 0.936604 13.638C0.104136 16.2301 -0.17805 18.9674 0.108101 21.6749C0.394252 24.3823 1.24244 27.0001 2.59839 29.3609C2.83463 29.7682 3.18218 30.0995 3.60023 30.3161C4.01828 30.5327 4.48945 30.6254 4.95839 30.5835C5.48226 30.5374 6.13452 30.4722 6.91 30.3812C7.24751 30.3428 7.55911 30.1816 7.78545 29.9283C8.01179 29.6751 8.13707 29.3474 8.13742 29.0077V18.6341" fill="#12161C"/>
<path d="M8.0769 35.3957C10.996 37.5193 14.4457 38.794 18.0443 39.0787C21.6428 39.3634 25.25 38.6471 28.4668 37.009C31.6835 35.3708 34.3844 32.8748 36.2705 29.7969C38.1567 26.7191 39.1547 23.1794 39.154 19.5696C39.154 19.118 39.133 18.6735 39.103 18.2302C31.9537 28.8931 18.753 33.878 8.0769 35.3957Z" fill="#F0B90B"/>
</svg>
