<svg width="24" height="24" viewBox="0 0 24 24" fill="none" xmlns="http://www.w3.org/2000/svg">
<path d="M20 7.42034C19.4459 7.66337 18.8533 7.82538 18.2334 7.89559C18.8698 7.52295 19.3581 6.92889 19.5885 6.22142C18.9905 6.56706 18.3321 6.82088 17.6298 6.9559C17.0702 6.36724 16.2692 6 15.3859 6C13.6851 6 12.308 7.35554 12.308 9.0297C12.308 9.26733 12.3354 9.49955 12.3903 9.72097C9.82808 9.59136 7.56217 8.38704 6.04242 6.55626C5.77907 7.0045 5.62545 7.52295 5.62545 8.07921C5.62545 9.13231 6.16861 10.0558 6.99707 10.6013C6.49231 10.5851 6.02048 10.45 5.6035 10.2232C5.6035 10.234 5.6035 10.2502 5.6035 10.261C5.6035 11.73 6.66239 12.9505 8.07241 13.2313C7.81455 13.3015 7.54023 13.3393 7.26042 13.3393C7.0629 13.3393 6.87088 13.3177 6.67885 13.2853C7.06839 14.4896 8.20958 15.3645 9.55376 15.3915C8.50036 16.2016 7.17263 16.6877 5.72969 16.6877C5.4828 16.6877 5.23591 16.6715 4.99451 16.6445C6.35515 17.5031 7.97366 18.0054 9.71287 18.0054C15.3749 18.0054 18.4693 13.3879 18.4693 9.38614C18.4693 9.25653 18.4638 9.12151 18.4583 8.9919C19.0673 8.55986 19.5885 8.0252 20 7.42034Z" fill="#77768D"/>
</svg>
