<svg width="24" height="24" viewBox="0 0 24 24" fill="none" xmlns="http://www.w3.org/2000/svg">
<g clip-path="url(#clip0_1025_4919)">
<path fill-rule="evenodd" clip-rule="evenodd" d="M12 0C18.6274 0 24 5.37258 24 12C24 18.6274 18.6274 24 12 24C5.37258 24 0 18.6274 0 12C0 5.37258 5.37258 0 12 0ZM15.4973 13.4348L12 16.932L8.50426 13.4365L6.46752 15.4675L6.4704 15.4704L12 21L17.5314 15.4688L17.5324 15.4677L15.4973 13.4348ZM12 9.93497L10.4745 11.46L10.2993 11.6353L9.93785 11.9968L9.93497 11.9996L9.93785 12.0026L12 14.065L14.064 12.0011L14.065 11.9999L14.0631 11.9989H14.0638L12 9.93497ZM18.9661 9.96679L16.932 12.0009L18.966 14.0348L21 12.0007L18.9661 9.96679ZM5.03407 9.96564L3 12L5.03393 14.0336L7.068 11.9996L5.03407 9.96564ZM12 3L6.4704 8.5296L8.50433 10.5636L8.50426 10.5637L12 7.068L15.4974 10.5653L17.5314 8.53126L12 3Z" fill="black"/>
</g>
<defs>
<clipPath id="clip0_1025_4919">
<rect width="24" height="24" fill="white"/>
</clipPath>
</defs>
</svg>
