<svg width="24" height="24" viewBox="0 0 24 24" fill="none" xmlns="http://www.w3.org/2000/svg">
<path fill-rule="evenodd" clip-rule="evenodd" d="M13.2318 2.33535C13.6064 2.55476 13.9175 2.87035 14.1337 3.25039L22.6695 18.2501C23.3499 19.4458 22.9461 20.9747 21.7676 21.6651C21.393 21.8845 20.9681 22 20.5355 22H3.46406C2.1032 22 1 20.8807 1 19.5001C1 19.0612 1.11385 18.6301 1.33012 18.2501L9.86586 3.25039C10.5463 2.05468 12.0533 1.64501 13.2318 2.33535ZM12 17C11.4477 17 11 17.4477 11 18C11 18.5523 11.4477 19 12 19C12.5523 19 13 18.5523 13 18C13 17.4477 12.5523 17 12 17ZM12 8C11.4477 8 11 8.44772 11 9V15C11 15.5523 11.4477 16 12 16C12.5523 16 13 15.5523 13 15V9C13 8.44772 12.5523 8 12 8Z" fill="#FFBF1B"/>
</svg>
