<svg width="24" height="24" viewBox="0 0 24 24" fill="none" xmlns="http://www.w3.org/2000/svg">
<path fill-rule="evenodd" clip-rule="evenodd" d="M19 12.3052C19 11.7987 18.9545 11.3116 18.8701 10.8441H12.1428V13.6071H15.987C15.8214 14.5 15.3181 15.2565 14.5617 15.7629V17.5552H16.8701C18.2207 16.3116 19 14.4805 19 12.3052Z" fill="#4285F4"/>
<path fill-rule="evenodd" clip-rule="evenodd" d="M12.1429 19.2857C14.0715 19.2857 15.6883 18.6461 16.8702 17.5552L14.5617 15.763C13.9221 16.1916 13.1039 16.4448 12.1429 16.4448C10.2825 16.4448 8.70782 15.1883 8.14613 13.5H5.75977V15.3506C6.93509 17.6851 9.35067 19.2857 12.1429 19.2857Z" fill="#34A853"/>
<path fill-rule="evenodd" clip-rule="evenodd" d="M8.1461 13.5C8.00325 13.0714 7.92208 12.6136 7.92208 12.1429C7.92208 11.6721 8.00325 11.2143 8.1461 10.7857V8.93506H5.75974C5.27597 9.89934 5 10.9903 5 12.1429C5 13.2954 5.27597 14.3864 5.75974 15.3506L8.1461 13.5Z" fill="#FBBC05"/>
<path fill-rule="evenodd" clip-rule="evenodd" d="M12.1429 7.84091C13.1916 7.84091 14.1331 8.2013 14.8734 8.90909L16.9221 6.86039C15.6851 5.70779 14.0682 5 12.1429 5C9.35067 5 6.93509 6.60065 5.75977 8.93507L8.14613 10.7857C8.70782 9.0974 10.2825 7.84091 12.1429 7.84091Z" fill="#EA4335"/>
</svg>
