<svg width="18" height="13" viewBox="0 0 18 13" fill="none" xmlns="http://www.w3.org/2000/svg">
<path fill-rule="evenodd" clip-rule="evenodd" d="M12.5 2H16.5C17.35 2 18 2.65 18 3.5V11.5C18 12.3 17.35 13 16.5 13H1.5C0.65 13 0 12.3 0 11.5V3.5C0 2.65 0.65 2 1.5 2H5.5L6.5 0H11.5L12.5 2ZM5.5 7.5C5.5 9.45 7.05 11 9 11C10.95 11 12.5 9.45 12.5 7.5C12.5 5.55 10.95 4 9 4C7.05 4 5.5 5.55 5.5 7.5ZM10.5 7.5C10.5 8.32843 9.82843 9 9 9C8.17157 9 7.5 8.32843 7.5 7.5C7.5 6.67157 8.17157 6 9 6C9.82843 6 10.5 6.67157 10.5 7.5Z" fill="#24242E"/>
</svg>
