<svg width="24" height="24" viewBox="0 0 24 24" fill="none" xmlns="http://www.w3.org/2000/svg">
<path fill-rule="evenodd" clip-rule="evenodd" d="M4 12C4 7.58172 7.58172 4 12 4C16.4183 4 20 7.58172 20 12C20 16.4183 16.4183 20 12 20C7.58172 20 4 16.4183 4 12ZM12 2C6.47715 2 2 6.47715 2 12C2 17.5228 6.47715 22 12 22C17.5228 22 22 17.5228 22 12C22 6.47715 17.5228 2 12 2ZM10.3753 17.2704L8.71751 16.5169C8.9687 16.1652 9.44092 15.07 9.32035 13.5026C8.76775 13.4022 7.66254 13.1072 7.04321 12.8611L7.66254 11.242L8.40442 11.49L9.16964 11.6941C9.01893 11.1415 8.80794 9.76502 9.16964 8.6799C9.62178 7.3235 11.1289 6.26856 12.9374 6.56997C14.5952 6.84626 16.3837 8.37853 16.1023 10.4884C15.8352 12.492 14.339 13.3175 13.691 13.5027C12.6363 13.804 11.7322 13.804 10.9788 13.804H10.9782C11.0284 14.5576 10.9782 16.3059 10.3753 17.2704ZM10.6768 9.73488C10.8275 8.6799 12.1057 8.09478 13.0099 8.39628C13.841 8.67339 14.4446 9.28272 14.2938 10.3377C14.1431 11.3927 13.3896 11.8448 12.7867 11.9955C12.3045 12.1161 11.2796 12.0458 10.8275 11.9955C10.727 11.5936 10.5562 10.5788 10.6768 9.73488ZM16.4647 16.0605C16.4647 16.6915 15.9531 17.203 15.3221 17.203C14.6911 17.203 14.1795 16.6915 14.1795 16.0605C14.1795 15.4294 14.6911 14.9179 15.3221 14.9179C15.9531 14.9179 16.4647 15.4294 16.4647 16.0605Z" fill="#24242E"/>
</svg>
