<svg width="24" height="24" viewBox="0 0 24 24" fill="none" xmlns="http://www.w3.org/2000/svg">
<rect x="3.5" y="4.5" width="17" height="16" rx="3.5" fill="white" stroke="#77768D"/>
<path fill-rule="evenodd" clip-rule="evenodd" d="M7.43942 9.43929C7.63468 9.24403 7.95126 9.24403 8.14652 9.43929L8.50008 9.79285L8.85363 9.43929C9.04889 9.24403 9.36547 9.24403 9.56074 9.43929C9.756 9.63456 9.756 9.95114 9.56074 10.1464L9.20718 10.5L9.56074 10.8535C9.756 11.0488 9.756 11.3654 9.56074 11.5606C9.36547 11.7559 9.04889 11.7559 8.85363 11.5606L8.50008 11.2071L8.14652 11.5606C7.95126 11.7559 7.63468 11.7559 7.43942 11.5606C7.24415 11.3654 7.24415 11.0488 7.43942 10.8535L7.79297 10.5L7.43942 10.1464C7.24415 9.95114 7.24415 9.63456 7.43942 9.43929ZM14.4394 9.43929C14.6347 9.24403 14.9513 9.24403 15.1465 9.43929L15.5001 9.79285L15.8536 9.43929C16.0489 9.24403 16.3655 9.24403 16.5607 9.43929C16.756 9.63456 16.756 9.95114 16.5607 10.1464L16.2072 10.5L16.5607 10.8535C16.756 11.0488 16.756 11.3654 16.5607 11.5606C16.3655 11.7559 16.0489 11.7559 15.8536 11.5606L15.5001 11.2071L15.1465 11.5606C14.9513 11.7559 14.6347 11.7559 14.4394 11.5606C14.2442 11.3654 14.2442 11.0488 14.4394 10.8535L14.793 10.5L14.4394 10.1464C14.2442 9.95114 14.2442 9.63456 14.4394 9.43929Z" fill="#77768D"/>
<path d="M8.35359 16.354C8.15808 16.549 7.8415 16.5486 7.64648 16.3531C7.45147 16.1576 7.45188 15.841 7.64739 15.646L8.35359 16.354ZM9.00305 15L8.64995 14.646C8.84528 14.4512 9.16152 14.4514 9.3566 14.6464L9.00305 15ZM10.003 16L10.3566 16.3536C10.1613 16.5488 9.84476 16.5488 9.6495 16.3536L10.003 16ZM11.003 15L10.6495 14.6464C10.7433 14.5527 10.8704 14.5 11.003 14.5C11.1357 14.5 11.2628 14.5527 11.3566 14.6464L11.003 15ZM12.003 16L12.3566 16.3536C12.2628 16.4473 12.1357 16.5 12.003 16.5C11.8704 16.5 11.7433 16.4473 11.6495 16.3536L12.003 16ZM13.003 15L12.6495 14.6464C12.8448 14.4512 13.1613 14.4512 13.3566 14.6464L13.003 15ZM14.003 16L14.3566 16.3536C14.1613 16.5488 13.8448 16.5488 13.6495 16.3536L14.003 16ZM15.003 15L14.6495 14.6464C14.7434 14.5526 14.8708 14.4999 15.0035 14.5C15.1363 14.5001 15.2636 14.5531 15.3573 14.6471L15.003 15ZM16.3534 15.6471C16.5483 15.8428 16.5477 16.1594 16.352 16.3542C16.1564 16.5491 15.8398 16.5485 15.6449 16.3529L16.3534 15.6471ZM7.64739 15.646L8.64995 14.646L9.35615 15.354L8.35359 16.354L7.64739 15.646ZM9.3566 14.6464L10.3566 15.6464L9.6495 16.3536L8.64949 15.3536L9.3566 14.6464ZM9.6495 15.6464L10.6495 14.6464L11.3566 15.3536L10.3566 16.3536L9.6495 15.6464ZM11.3566 14.6464L12.3566 15.6464L11.6495 16.3536L10.6495 15.3536L11.3566 14.6464ZM11.6495 15.6464L12.6495 14.6464L13.3566 15.3536L12.3566 16.3536L11.6495 15.6464ZM13.3566 14.6464L14.3566 15.6464L13.6495 16.3536L12.6495 15.3536L13.3566 14.6464ZM13.6495 15.6464L14.6495 14.6464L15.3566 15.3536L14.3566 16.3536L13.6495 15.6464ZM15.3573 14.6471L16.3534 15.6471L15.6449 16.3529L14.6488 15.3529L15.3573 14.6471Z" fill="#77768D"/>
</svg>
