<svg width="40" height="40" viewBox="0 0 40 40" fill="none" xmlns="http://www.w3.org/2000/svg">
<path d="M20 4C28.8366 4 36 11.1634 36 20C36 28.8366 28.8366 36 20 36C11.1634 36 4 28.8366 4 20C4 11.1634 11.1634 4 20 4ZM20 9C13.9249 9 9 13.9249 9 20C9 26.0751 13.9249 31 20 31C26.0751 31 31 26.0751 31 20C31 13.9249 26.0751 9 20 9ZM23.2 16C23.6418 16 24 16.3582 24 16.8V23.2C24 23.6418 23.6418 24 23.2 24H16.8C16.3582 24 16 23.6418 16 23.2V16.8C16 16.3582 16.3582 16 16.8 16H23.2Z" fill="#225AEB"/>
</svg>
