<svg width="16" height="16" viewBox="0 0 16 16" fill="none" xmlns="http://www.w3.org/2000/svg">
<path d="M8.03136 13.5993L3.86469 9.26594C3.86469 9.18261 2.36469 7.76594 1.94802 6.51594C1.86469 6.26594 1.78135 6.01594 1.78135 5.68261C1.69802 4.59928 2.28135 3.43261 3.11469 2.84928C4.03135 2.26594 5.19802 2.26594 6.19802 2.76594C6.94802 3.09928 7.53136 3.76594 8.03136 4.43261C8.53136 3.76594 9.11469 3.09928 9.86469 2.76594C10.8647 2.26594 12.0314 2.34928 12.8647 2.84928C13.7814 3.43261 14.3647 4.59928 14.198 5.68261C14.198 5.93261 14.1147 6.18261 14.0314 6.43261C13.698 7.76594 12.198 9.18261 12.198 9.26594L8.03136 13.5993ZM4.69802 3.26594C4.28135 3.26594 3.86469 3.34928 3.53135 3.59928C2.94802 3.93261 2.53135 4.84928 2.61469 5.68261C2.61469 5.84928 2.69802 6.01594 2.69802 6.26594C3.11469 7.34928 4.44802 8.76594 4.44802 8.76594L8.03136 12.4326L11.5314 8.68261C11.5314 8.68261 12.8647 7.26594 13.2814 6.18261C13.3647 6.01594 13.3647 5.84928 13.3647 5.59928C13.448 4.76594 13.0314 3.93261 12.3647 3.51594C11.7814 3.09928 10.8647 3.09928 10.198 3.43261C9.53136 3.84928 8.94802 4.59928 8.36469 5.43261L8.03136 5.84928L7.69802 5.43261C7.11469 4.59928 6.53136 3.84928 5.78136 3.51594C5.44802 3.34928 5.11469 3.26594 4.69802 3.26594Z" fill="#24242E"/>
</svg>
