<svg width="40" height="40" viewBox="0 0 40 40" fill="none" xmlns="http://www.w3.org/2000/svg">
<path d="M12.5 10H27.5V13H30.5V7C30.5 5.3425 29.1575 4.015 27.5 4.015L12.5 4C10.8425 4 9.5 5.3425 9.5 7V13H12.5V10ZM25.1225 27.3775L32 20.5L25.1225 13.6225L23 15.745L27.755 20.5L23 25.2625L25.1225 27.3775ZM17 25.2625L12.245 20.5075L17 15.745L14.8775 13.6225L8 20.5L14.8775 27.3775L17 25.2625ZM27.5 31H12.5V28H9.5V34C9.5 35.6575 10.8425 37 12.5 37H27.5C29.1575 37 30.5 35.6575 30.5 34V28H27.5V31Z" fill="#FF586D"/>
</svg>
